<?xml version="1.0" standalone="no"?>
<!DOCTYPE svg PUBLIC "-//W3C//DTD SVG 20010904//EN"
 "http://www.w3.org/TR/2001/REC-SVG-20010904/DTD/svg10.dtd">
<svg version="1.0" xmlns="http://www.w3.org/2000/svg"
 width="512.000000pt" height="512.000000pt" viewBox="0 0 512.000000 512.000000"
 preserveAspectRatio="xMidYMid meet">
<metadata>
Created for Luminousss
</metadata>
<g transform="translate(0.000000,512.000000) scale(0.100000,-0.100000)"
fill="#000000" stroke="none">
<path d="M2345 2560 c-22 -4 -74 -8 -115 -9 -41 -1 -88 -6 -103 -11 -15 -5
-27 -8 -27 -6 0 2 -24 -4 -52 -14 -49 -15 -57 -18 -113 -47 -11 -6 -27 -15
-35 -19 -66 -36 -155 -130 -195 -207 -32 -62 -67 -171 -58 -181 3 -2 1 -10 -4
-18 -5 -8 -9 -51 -10 -97 -1 -91 15 -171 50 -251 69 -156 202 -269 377 -321
l65 -19 225 0 225 0 59 23 c104 40 190 98 245 166 28 35 31 45 31 107 0 64 -2
70 -34 103 -35 35 -68 48 -134 53 -33 2 -35 0 -86 -87 -21 -35 -38 -80 -40
-100 -2 -20 -7 -44 -11 -52 -5 -13 -27 -18 -100 -23 -52 -4 -101 -4 -110 0 -8
4 -35 9 -60 10 -38 3 -51 9 -72 35 -15 17 -54 82 -87 144 -33 62 -63 117 -66
122 -4 6 -7 37 -8 70 -1 93 38 173 101 205 36 19 66 19 359 2 189 -11 262 -5
303 22 56 37 79 144 45 208 -27 52 -68 108 -108 150 -47 49 -103 92 -141 108
-38 17 -172 30 -236 24z"/>
</g>
</svg> 